<svg fill="none" height="21" viewBox="0 0 25 21" width="25" xmlns="http://www.w3.org/2000/svg">
	<g><path d="m15.3688 19.5874 8.2136-8.1508c.7524-.7512.7524-1.97039 0-2.71902l-8.2136-8.155612c-.7587-.751141-1.9867-.747372-2.7454 0-.7511.752402-.7511 1.966592 0 2.718992l4.8051 4.76742h-15.41413c-1.113504 0-2.01438907.89964-2.01438907 2.01312 0 1.1123.90088507 2.0132 2.01438907 2.0132h15.44313l-4.8341 4.7925c-.7511.7511-.7511 1.9666 0 2.7177.7575.7524 1.9855.7537 2.7454.0026z" fill="#fff"/>
	</g>
	<g><path d="m15.3688 19.5874 8.2136-8.1508c.7524-.7512.7524-1.97039 0-2.71902l-8.2136-8.155612c-.7587-.751141-1.9867-.747372-2.7454 0-.7511.752402-.7511 1.966592 0 2.718992l4.8051 4.76742h-15.41413c-1.113504 0-2.01438907.89964-2.01438907 2.01312 0 1.1123.90088507 2.0132 2.01438907 2.0132h15.44313l-4.8341 4.7925c-.7511.7511-.7511 1.9666 0 2.7177.7575.7524 1.9855.7537 2.7454.0026z" fill="#fff"/>
	</g>

</svg>