<svg fill="none" height="11" viewBox="0 0 21 11" width="21" xmlns="http://www.w3.org/2000/svg"><path d="m10.3067 10.8879c.3982-.0394.7752-.1999 1.078-.4603l8.1393-6.97658c.4103-.32854.6692-.80998.7177-1.33234.0484-.52235-.1166-1.04164-.4572-1.441365-.3422-.398171-.8297-.6419254-1.3536-.67374646-.5238-.03179434-1.0386.14988846-1.4262.50417646l-6.8797 5.898715-6.87971-5.898715c-.38759-.35428-.90234-.5359588-1.42621-.50417646-.52387.03179436-1.011375.27555246-1.353538.67374646-.340656.399685-.505688.919015-.45723939 1.441365.04844869.52236.30734639 1.00378.71766039 1.33234l8.139377 6.97658c.39817.3422.91901.5072 1.44136.4603z" fill="#fff"/></svg>